<svg width="144" height="60" viewBox="0 0 144 60" fill="none" xmlns="http://www.w3.org/2000/svg">
<g clip-path="url(#clip0_1_369)">
<rect x="0.5" y="0.5" width="59" height="59" rx="3.5" fill="#0F0F0F"/>
<rect x="0.5" y="0.5" width="59" height="59" rx="3.5" stroke="#3EFF18"/>
<path d="M29.417 29.9998L32.3337 27.0832C32.667 26.7498 32.667 26.2498 32.3337 25.9165C32.0003 25.5832 31.5003 25.5832 31.167 25.9165L27.667 29.4165C27.3337 29.7498 27.3337 30.2498 27.667 30.5832L31.167 34.0832C31.3337 34.2498 31.5003 34.3332 31.7503 34.3332C32.0003 34.3332 32.167 34.2498 32.3337 34.0832C32.667 33.7498 32.667 33.2498 32.3337 32.9165L29.417 29.9998Z" fill="#3EFF18"/>
</g>
<g clip-path="url(#clip1_1_369)">
<rect x="84.5" y="0.5" width="59" height="59" rx="3.5" fill="#0F0F0F"/>
<rect x="84.5" y="0.5" width="59" height="59" rx="3.5" stroke="#3EFF18"/>
<path d="M116.916 29.4165L112.25 24.6665C111.916 24.3332 111.416 24.3332 111.083 24.6665C110.75 24.9998 110.75 25.4998 111.083 25.8332L115.166 29.9165L111.083 33.9998C110.916 34.1665 110.833 34.3332 110.833 34.5832C110.833 35.0832 111.166 35.4165 111.666 35.4165C111.916 35.4165 112.083 35.3332 112.25 35.1665L117 30.4165C117.25 30.2498 117.25 29.7498 116.916 29.4165Z" fill="#3EFF18"/>
</g>
<defs>
<clipPath id="clip0_1_369">
<rect width="60" height="60" rx="4" fill="white"/>
</clipPath>
<clipPath id="clip1_1_369">
<rect x="84" width="60" height="60" rx="4" fill="white"/>
</clipPath>
</defs>
</svg>
