<svg width="198" height="72" viewBox="0 0 198 72" fill="none" xmlns="http://www.w3.org/2000/svg">
<rect x="0.5" y="0.5" width="197" height="71" rx="9.5" stroke="#A1AEBF"/>
<path d="M83.2826 27.5288H80.1404V41.6212H88.839V38.8598H83.2826V27.5288Z" fill="white"/>
<path d="M89.1394 36.8412C89.1394 39.8501 91.1704 41.8497 94.2359 41.8497C97.2823 41.8497 99.3133 39.8501 99.3133 36.8412C99.3133 33.8323 97.2823 31.8136 94.2359 31.8136C91.1704 31.8136 89.1394 33.8323 89.1394 36.8412ZM92.1091 36.8221C92.1091 35.3939 92.9522 34.4417 94.2359 34.4417C95.5005 34.4417 96.3435 35.3939 96.3435 36.8221C96.3435 38.2695 95.5005 39.2217 94.2359 39.2217C92.9522 39.2217 92.1091 38.2695 92.1091 36.8221Z" fill="white"/>
<path d="M99.7872 36.6889C99.7872 39.5645 101.665 41.5069 104.328 41.5069C105.612 41.5069 106.723 41.0499 107.279 40.3072V41.6212C107.279 42.9352 106.455 43.8112 104.999 43.8112C103.696 43.8112 102.795 43.2018 102.738 42.1164H99.7488C100.017 44.7254 102.048 46.4773 104.826 46.4773C108.103 46.4773 110.172 44.3635 110.172 41.0118V32.0994H107.509L107.355 33.0705C106.819 32.2898 105.688 31.7756 104.386 31.7756C101.703 31.7756 99.7872 33.7752 99.7872 36.6889ZM102.776 36.6127C102.776 35.2415 103.696 34.3274 104.865 34.3274C106.225 34.3274 107.221 35.2225 107.221 36.6127C107.221 38.0029 106.244 38.9551 104.884 38.9551C103.715 38.9551 102.776 38.0029 102.776 36.6127Z" fill="white"/>
<path d="M111.032 36.8412C111.032 39.8501 113.063 41.8497 116.129 41.8497C119.175 41.8497 121.206 39.8501 121.206 36.8412C121.206 33.8323 119.175 31.8136 116.129 31.8136C113.063 31.8136 111.032 33.8323 111.032 36.8412ZM114.002 36.8221C114.002 35.3939 114.845 34.4417 116.129 34.4417C117.393 34.4417 118.236 35.3939 118.236 36.8221C118.236 38.2695 117.393 39.2217 116.129 39.2217C114.845 39.2217 114.002 38.2695 114.002 36.8221Z" fill="white"/>
<path d="M123.75 30.6138C124.669 30.6138 125.417 29.8711 125.417 28.9379C125.417 28.0048 124.669 27.2811 123.75 27.2811C122.811 27.2811 122.064 28.0048 122.064 28.9379C122.064 29.8711 122.811 30.6138 123.75 30.6138ZM122.255 41.6211H125.225V32.0992H122.255V41.6211Z" fill="white"/>
<path d="M126.954 46.1916H129.867V40.669C130.422 41.3926 131.687 41.8877 133.009 41.8877C135.863 41.8877 137.588 39.7168 137.511 36.7078C137.434 33.6418 135.653 31.7946 132.989 31.7946C131.629 31.7946 130.346 32.3849 129.809 33.261L129.655 32.0993H126.954V46.1916ZM129.924 36.8602C129.924 35.4319 130.882 34.4798 132.261 34.4798C133.66 34.4798 134.541 35.4509 134.541 36.8602C134.541 38.2695 133.66 39.2406 132.261 39.2406C130.882 39.2406 129.924 38.2885 129.924 36.8602Z" fill="white"/>
<path d="M137.825 38.6122C137.902 40.5356 139.435 41.8687 141.849 41.8687C144.167 41.8687 145.777 40.6499 145.777 38.6884C145.777 37.2792 144.934 36.346 143.362 35.9651L141.658 35.5462C141.045 35.3938 140.661 35.2414 140.661 34.7463C140.661 34.2512 141.063 33.9274 141.658 33.9274C142.328 33.9274 142.768 34.3655 142.75 35.0129H145.413C145.336 33.0324 143.823 31.7946 141.715 31.7946C139.589 31.7946 137.998 33.0515 137.998 34.9558C137.998 36.2317 138.707 37.2792 140.603 37.7743L142.289 38.2123C142.788 38.3456 142.998 38.5741 142.998 38.8978C142.998 39.374 142.558 39.6787 141.81 39.6787C140.948 39.6787 140.489 39.2787 140.489 38.6122H137.825Z" fill="white"/>
<path d="M150.293 41.8686C151.462 41.8686 152.631 41.3354 153.225 40.5546L153.417 41.6211H156.195V32.0992H153.244V37.0506C153.244 38.4788 152.823 39.2596 151.462 39.2596C150.408 39.2596 149.718 38.7836 149.718 37.0125V32.0992H146.768V38.0789C146.768 40.3452 148.032 41.8686 150.293 41.8686Z" fill="white"/>
<path d="M160.873 41.6212V36.4223C160.873 34.8226 161.736 34.3655 162.579 34.3655C163.517 34.3655 164.13 34.9369 164.13 36.1176V41.6212H167.043V36.4223C167.043 34.8036 167.886 34.3465 168.729 34.3465C169.667 34.3465 170.3 34.9178 170.3 36.1176V41.6212H173.174V35.3939C173.174 33.2229 172.024 31.7756 169.552 31.7756C168.173 31.7756 167.043 32.4421 166.544 33.4705C165.97 32.4421 164.973 31.7756 163.383 31.7756C162.329 31.7756 161.352 32.2517 160.778 33.0134L160.663 32.0994H157.903V41.6212H160.873Z" fill="white"/>
<path d="M24 36.0001C24 28.2957 30.2837 22.05 38.0351 22.05H56.4561C64.2075 22.05 70.4912 28.2957 70.4912 36.0001V49.9501H38.0351C30.2837 49.9501 24 43.7045 24 36.0001Z" fill="white"/>
<path d="M56.4561 27.2811H38.0351C33.1905 27.2811 29.2632 31.1847 29.2632 35.9999C29.2632 40.8151 33.1905 44.7187 38.0351 44.7187H56.4561C61.3008 44.7187 65.2281 40.8151 65.2281 35.9999C65.2281 31.1847 61.3008 27.2811 56.4561 27.2811Z" fill="#4B5567"/>
<path d="M38.0351 40.3594C40.4574 40.3594 42.421 38.4076 42.421 36C42.421 33.5924 40.4574 31.6406 38.0351 31.6406C35.6128 31.6406 33.6491 33.5924 33.6491 36C33.6491 38.4076 35.6128 40.3594 38.0351 40.3594Z" fill="white"/>
<path d="M36.2816 35.1282C36.7663 35.1282 37.1592 34.7378 37.1592 34.2563C37.1592 33.7748 36.7663 33.3844 36.2816 33.3844C35.7969 33.3844 35.404 33.7748 35.404 34.2563C35.404 34.7378 35.7969 35.1282 36.2816 35.1282Z" fill="#0D0D0D"/>
<path d="M57.3338 40.3594C59.7561 40.3594 61.7197 38.4076 61.7197 36C61.7197 33.5924 59.7561 31.6406 57.3338 31.6406C54.9115 31.6406 52.9478 33.5924 52.9478 36C52.9478 38.4076 54.9115 40.3594 57.3338 40.3594Z" fill="white"/>
<path d="M55.5794 35.1282C56.064 35.1282 56.4569 34.7378 56.4569 34.2563C56.4569 33.7748 56.064 33.3844 55.5794 33.3844C55.0947 33.3844 54.7018 33.7748 54.7018 34.2563C54.7018 34.7378 55.0947 35.1282 55.5794 35.1282Z" fill="#0D0D0D"/>
</svg>
