<svg width="198" height="72" viewBox="0 0 198 72" fill="none" xmlns="http://www.w3.org/2000/svg">
<rect x="0.5" y="0.5" width="197" height="71" rx="9.5" stroke="#A1AEBF"/>
<path d="M34.1099 44.5089C31.2201 47.3812 26.3258 47.3698 24.9589 43.5416C24.6913 42.7921 24.4773 42.0214 24.32 41.2351C23.6774 38.0244 24.0072 34.6965 25.2676 31.672C26.528 28.6477 28.6623 26.0627 31.4008 24.244C34.1393 22.4253 37.3589 21.4546 40.6524 21.4546C43.9459 21.4546 47.1655 22.4253 49.9039 24.244C52.6425 26.0627 54.7768 28.6477 56.0372 31.6721C57.2976 34.6965 57.6273 38.0244 56.9848 41.2351C56.8275 42.0214 56.6135 42.7921 56.3458 43.5416C54.979 47.3698 50.0847 47.3812 47.1948 44.5089L42.7339 40.075C42.3077 39.6514 42.3518 38.9528 42.4694 38.3652C42.5408 38.0081 42.5041 37.6379 42.3639 37.3014C42.2236 36.9649 41.9863 36.6773 41.6816 36.4751C41.377 36.2728 41.0188 36.1648 40.6524 36.1648C40.286 36.1648 39.9279 36.2728 39.6232 36.4751C39.3185 36.6773 39.0811 36.9649 38.9409 37.3014C38.8006 37.6379 38.764 38.0081 38.8355 38.3652C38.9531 38.9528 38.997 39.6514 38.5708 40.075L34.1099 44.5089Z" fill="#728095"/>
<path d="M70.8525 40.5349H75.3286V43.1567H67.4354V29.2137H70.8525V40.5349Z" fill="white"/>
<path d="M81.4349 43.3157C80.3425 43.3157 79.3566 43.084 78.4774 42.6205C77.6115 42.1571 76.9254 41.495 76.4192 40.6344C75.9263 39.7737 75.6798 38.7674 75.6798 37.6153C75.6798 36.4766 75.9329 35.4769 76.4391 34.6162C76.9454 33.7423 77.6381 33.0736 78.5173 32.6102C79.3966 32.1468 80.3825 31.915 81.4748 31.915C82.5672 31.915 83.5531 32.1468 84.4323 32.6102C85.3116 33.0736 86.0043 33.7423 86.5105 34.6162C87.0167 35.4769 87.2699 36.4766 87.2699 37.6153C87.2699 38.7541 87.01 39.7604 86.4906 40.6344C85.9843 41.495 85.2849 42.1571 84.3923 42.6205C83.5131 43.084 82.5273 43.3157 81.4349 43.3157ZM81.4349 40.3761C82.0876 40.3761 82.6405 40.1378 83.0935 39.6611C83.5597 39.1844 83.7929 38.5025 83.7929 37.6153C83.7929 36.7282 83.5663 36.0463 83.1134 35.5696C82.6738 35.0929 82.1276 34.8545 81.4748 34.8545C80.8087 34.8545 80.2559 35.0929 79.8162 35.5696C79.3766 36.033 79.1568 36.7149 79.1568 37.6153C79.1568 38.5025 79.37 39.1844 79.7963 39.6611C80.2359 40.1378 80.7821 40.3761 81.4349 40.3761Z" fill="white"/>
<path d="M92.7196 31.915C93.5056 31.915 94.1917 32.0739 94.7779 32.3917C95.3773 32.7095 95.837 33.1266 96.1567 33.643V32.0739H99.5737V43.1369C99.5737 44.1565 99.3673 45.0768 98.9543 45.8976C98.5546 46.7319 97.9351 47.3939 97.0959 47.8838C96.2699 48.3738 95.2374 48.6188 93.9985 48.6188C92.3466 48.6188 91.0077 48.2282 89.9819 47.4469C88.9562 46.6789 88.37 45.6328 88.2234 44.3087H91.6006C91.7071 44.7324 91.9603 45.0635 92.36 45.3019C92.7595 45.5534 93.2525 45.6792 93.8387 45.6792C94.5447 45.6792 95.1042 45.4739 95.5172 45.0635C95.9435 44.6663 96.1567 44.0241 96.1567 43.1369V41.5679C95.8236 42.0842 95.364 42.508 94.7779 42.839C94.1917 43.1568 93.5056 43.3157 92.7196 43.3157C91.8004 43.3157 90.9678 43.084 90.2217 42.6205C89.4757 42.1438 88.8829 41.4751 88.4433 40.6144C88.017 39.7406 87.8038 38.7343 87.8038 37.5955C87.8038 36.4567 88.017 35.4571 88.4433 34.5964C88.8829 33.7357 89.4757 33.0736 90.2217 32.6102C90.9678 32.1468 91.8004 31.915 92.7196 31.915ZM96.1567 37.6153C96.1567 36.7679 95.9169 36.0992 95.4373 35.6093C94.971 35.1194 94.3981 34.8744 93.7188 34.8744C93.0393 34.8744 92.4598 35.1194 91.9802 35.6093C91.514 36.086 91.2808 36.7481 91.2808 37.5955C91.2808 38.4429 91.514 39.1182 91.9802 39.6214C92.4598 40.1113 93.0393 40.3563 93.7188 40.3563C94.3981 40.3563 94.971 40.1113 95.4373 39.6214C95.9169 39.1314 96.1567 38.4628 96.1567 37.6153Z" fill="white"/>
<path d="M106.522 43.3157C105.43 43.3157 104.444 43.084 103.565 42.6205C102.699 42.1571 102.013 41.495 101.506 40.6344C101.013 39.7737 100.767 38.7674 100.767 37.6153C100.767 36.4766 101.02 35.4769 101.526 34.6162C102.033 33.7423 102.725 33.0736 103.604 32.6102C104.484 32.1468 105.47 31.915 106.562 31.915C107.654 31.915 108.64 32.1468 109.519 32.6102C110.399 33.0736 111.091 33.7423 111.598 34.6162C112.104 35.4769 112.357 36.4766 112.357 37.6153C112.357 38.7541 112.097 39.7604 111.578 40.6344C111.071 41.495 110.372 42.1571 109.479 42.6205C108.6 43.084 107.614 43.3157 106.522 43.3157ZM106.522 40.3761C107.175 40.3761 107.728 40.1378 108.181 39.6611C108.647 39.1844 108.88 38.5025 108.88 37.6153C108.88 36.7282 108.653 36.0463 108.201 35.5696C107.761 35.0929 107.215 34.8545 106.562 34.8545C105.896 34.8545 105.343 35.0929 104.903 35.5696C104.464 36.033 104.244 36.7149 104.244 37.6153C104.244 38.5025 104.457 39.1844 104.883 39.6611C105.323 40.1378 105.869 40.3761 106.522 40.3761Z" fill="white"/>
<path d="M115.289 30.922C114.689 30.922 114.196 30.7498 113.81 30.4056C113.437 30.0481 113.25 29.6111 113.25 29.0947C113.25 28.5651 113.437 28.1281 113.81 27.7838C114.196 27.4263 114.689 27.2476 115.289 27.2476C115.875 27.2476 116.355 27.4263 116.727 27.7838C117.114 28.1281 117.307 28.5651 117.307 29.0947C117.307 29.6111 117.114 30.0481 116.727 30.4056C116.355 30.7498 115.875 30.922 115.289 30.922ZM116.987 32.074V43.1568H113.57V32.074H116.987Z" fill="white"/>
<path d="M122.281 33.643C122.614 33.1266 123.074 32.7095 123.66 32.3917C124.246 32.0739 124.933 31.915 125.718 31.915C126.638 31.915 127.47 32.1468 128.216 32.6102C128.962 33.0736 129.549 33.7357 129.974 34.5964C130.414 35.4571 130.634 36.4567 130.634 37.5955C130.634 38.7343 130.414 39.7406 129.974 40.6144C129.549 41.4751 128.962 42.1438 128.216 42.6205C127.47 43.084 126.638 43.3157 125.718 43.3157C124.945 43.3157 124.26 43.1568 123.66 42.839C123.074 42.5212 122.614 42.1107 122.281 41.6076V48.44H118.864V32.0739H122.281V33.643ZM127.157 37.5955C127.157 36.7481 126.917 36.086 126.437 35.6093C125.971 35.1194 125.392 34.8744 124.699 34.8744C124.02 34.8744 123.44 35.1194 122.96 35.6093C122.495 36.0992 122.262 36.7679 122.262 37.6153C122.262 38.4628 122.495 39.1314 122.96 39.6214C123.44 40.1113 124.02 40.3563 124.699 40.3563C125.379 40.3563 125.958 40.1113 126.437 39.6214C126.917 39.1182 127.157 38.4429 127.157 37.5955Z" fill="white"/>
<path d="M136.364 43.3157C135.391 43.3157 134.525 43.1501 133.765 42.8192C133.006 42.4881 132.406 42.0379 131.967 41.4685C131.528 40.8859 131.281 40.2371 131.228 39.522H134.605C134.645 39.906 134.825 40.2172 135.144 40.4555C135.465 40.6939 135.857 40.8131 136.324 40.8131C136.75 40.8131 137.076 40.7336 137.302 40.5747C137.542 40.4026 137.662 40.1841 137.662 39.9193C137.662 39.6015 137.496 39.3698 137.163 39.2241C136.83 39.0652 136.29 38.8932 135.544 38.7077C134.745 38.5224 134.079 38.3304 133.546 38.1317C133.013 37.9199 132.554 37.5955 132.167 37.1585C131.78 36.7084 131.588 36.1058 131.588 35.3512C131.588 34.7155 131.761 34.1396 132.107 33.6231C132.466 33.0935 132.986 32.6764 133.666 32.3718C134.358 32.0673 135.178 31.915 136.124 31.915C137.522 31.915 138.621 32.2593 139.421 32.9478C140.234 33.6364 140.7 34.55 140.82 35.6888H137.662C137.609 35.3048 137.436 35.0003 137.143 34.7751C136.863 34.55 136.49 34.4375 136.024 34.4375C135.624 34.4375 135.317 34.5169 135.105 34.6758C134.892 34.8214 134.785 35.0267 134.785 35.2915C134.785 35.6093 134.952 35.8477 135.285 36.0066C135.631 36.1655 136.163 36.3244 136.883 36.4832C137.709 36.6951 138.381 36.907 138.901 37.1188C139.421 37.3174 139.874 37.6484 140.26 38.1119C140.659 38.5621 140.867 39.1711 140.88 39.9392C140.88 40.588 140.693 41.1706 140.32 41.687C139.961 42.1902 139.434 42.5874 138.741 42.8787C138.062 43.1701 137.269 43.3157 136.364 43.3157Z" fill="white"/>
<path d="M153.381 32.0739V43.1567H149.964V41.6472C149.618 42.1371 149.145 42.5344 148.545 42.8389C147.959 43.1302 147.307 43.2759 146.587 43.2759C145.734 43.2759 144.981 43.0905 144.329 42.7197C143.676 42.3357 143.17 41.7862 142.811 41.0712C142.451 40.3562 142.271 39.5154 142.271 38.5487V32.0739H145.667V38.0919C145.667 38.8334 145.861 39.4094 146.247 39.8199C146.633 40.2304 147.153 40.4356 147.806 40.4356C148.472 40.4356 148.998 40.2304 149.384 39.8199C149.771 39.4094 149.964 38.8334 149.964 38.0919V32.0739H153.381Z" fill="white"/>
<path d="M169.464 31.9547C170.849 31.9547 171.948 32.3718 172.761 33.206C173.587 34.0402 174 35.1987 174 36.6818V43.1567H170.603V37.1387C170.603 36.4236 170.41 35.8741 170.023 35.4901C169.65 35.0928 169.131 34.8942 168.464 34.8942C167.799 34.8942 167.272 35.0928 166.886 35.4901C166.513 35.8741 166.327 36.4236 166.327 37.1387V43.1567H162.929V37.1387C162.929 36.4236 162.736 35.8741 162.35 35.4901C161.977 35.0928 161.457 34.8942 160.791 34.8942C160.125 34.8942 159.599 35.0928 159.213 35.4901C158.839 35.8741 158.653 36.4236 158.653 37.1387V43.1567H155.236V32.0739H158.653V33.4642C159 33.0008 159.453 32.6366 160.012 32.3718C160.572 32.0937 161.204 31.9547 161.91 31.9547C162.75 31.9547 163.496 32.1334 164.148 32.491C164.814 32.8485 165.334 33.3583 165.707 34.0203C166.093 33.4112 166.62 32.9147 167.286 32.5307C167.951 32.1467 168.678 31.9547 169.464 31.9547Z" fill="white"/>
</svg>
