<svg width="198" height="72" viewBox="0 0 198 72" fill="none" xmlns="http://www.w3.org/2000/svg">
<rect x="0.5" y="0.5" width="197" height="71" rx="9.5" stroke="#A1AEBF"/>
<path d="M51.8003 33.0172C54.6881 33.0172 55.3378 34.2563 55.3378 35.8018C55.3378 37.4399 54.5519 38.6136 51.8123 38.6136C49.0902 38.6136 48.3034 37.5081 48.3034 35.8018C48.3034 34.1227 49.1611 33.0172 51.8003 33.0172Z" fill="white"/>
<path d="M81.9791 33.0172C84.8668 33.0172 85.5165 34.2563 85.5165 35.8018C85.5165 37.4399 84.7297 38.6136 81.9911 38.6136C79.2699 38.6136 78.4822 37.5081 78.4822 35.8018C78.4822 34.1227 79.3398 33.0172 81.9791 33.0172Z" fill="white"/>
<path fill-rule="evenodd" clip-rule="evenodd" d="M26.2332 51.9091V19.6791H172.164V51.9091H26.2332ZM95.7836 50.0909H170.324V21.4973H95.7836V50.0909ZM51.8144 41.3573C56.9411 41.3573 59.0963 39.1727 59.0963 35.7609C59.0963 32.2936 56.6687 30.2327 51.8144 30.2327C47.0347 30.2327 44.5187 32.4709 44.5187 35.7609C44.5187 39.4736 47.158 41.3573 51.8144 41.3573ZM33.9902 30.4782V41.1936H44.3374V38.34H37.7337V30.4782H33.9902ZM70.6767 41.1936L70.5801 40.1554C69.3277 41.0383 67.8034 41.4633 66.2687 41.3573C63.9617 41.3573 62.0402 40.6745 60.9626 39.2963C60.2518 38.2902 59.8929 37.0823 59.9402 35.8563C59.8998 34.6561 60.2711 33.4775 60.9939 32.5118C62.0844 31.1745 64.061 30.2873 67.004 30.2873C70.3896 30.2873 72.3791 31.3109 73.235 33.0309C73.4186 33.436 73.5266 33.8705 73.5534 34.3136H69.9718C69.8815 34.0443 69.7136 33.8071 69.4887 33.6309C68.7752 33.1636 67.9232 32.9475 67.0702 33.0173C66.5699 32.9573 66.0623 33.003 65.5812 33.1513C65.1001 33.2995 64.6563 33.547 64.2791 33.8773C63.8509 34.4564 63.6498 35.1693 63.7132 35.8836C63.6635 36.5652 63.8484 37.2434 64.2377 37.8082C64.6182 38.1584 65.0706 38.4237 65.5641 38.5863C66.0576 38.7487 66.5806 38.8046 67.0979 38.75C68.1251 38.8325 69.145 38.5195 69.9442 37.8763C70.1158 37.6643 70.2341 37.4151 70.2893 37.1491H66.4353V34.8464H73.6472V41.1936H70.6767ZM81.9929 41.3573C87.1187 41.3573 89.2748 39.1727 89.2748 35.7609C89.2748 32.2936 86.8435 30.2327 81.9929 30.2327C77.2132 30.2327 74.6972 32.4709 74.6972 35.7609C74.6972 39.4736 77.3365 41.3573 81.9929 41.3573Z" fill="white"/>
<path d="M102.09 41.1527V30.4373H104.758V41.1527H102.09Z" fill="white"/>
<path d="M118.462 36.6754C117.786 37.549 116.622 37.9481 114.981 37.9581C114.635 37.9581 110.048 37.9445 110.048 37.9445V41.1526H107.436V30.4372H114.982C115.587 30.374 116.198 30.4374 116.776 30.6231C117.355 30.8089 117.887 31.1129 118.339 31.5154C118.935 32.2828 119.225 33.2397 119.154 34.2044C119.215 35.0819 118.971 35.9536 118.462 36.6754ZM116.321 33.1817C116.045 32.7726 115.449 32.5454 114.442 32.5454H110.034V35.8072H114.413C115.491 35.8072 116.059 35.589 116.321 35.1654C116.476 34.8669 116.544 34.5308 116.514 34.1963C116.537 33.8474 116.471 33.4984 116.321 33.1817Z" fill="white"/>
<path d="M126.85 41.3164C121.931 41.3164 120.425 39.4982 120.425 37.6991H123.216C123.216 38.5864 124.446 39.2555 126.974 39.2555C129.489 39.2555 130.152 38.8182 130.152 38.1082C130.152 37.3164 129.655 37.071 127.32 36.8119C126.859 36.771 125.607 36.621 125.137 36.5528C121.824 36.1837 120.548 35.2146 120.548 33.481C120.548 31.6519 122.415 30.2737 126.463 30.2737C130.857 30.2737 132.543 31.98 132.543 33.7546H129.782C129.782 32.8537 128.746 32.3346 126.3 32.3346C123.785 32.3346 123.247 32.6755 123.247 33.3446C123.247 34.041 123.799 34.2591 126.467 34.5728C127.076 34.6555 128.429 34.8055 128.802 34.8455C131.622 35.1319 132.893 36.1419 132.893 37.93C132.888 40.06 130.954 41.3164 126.85 41.3164Z" fill="white"/>
<path d="M140.752 41.3027C137.146 41.3027 134.797 39.8963 134.797 36.9391V30.4373H137.435V36.9754C137.435 38.3273 138.555 39.2273 140.862 39.2273C142.948 39.2273 144.192 38.3818 144.192 36.9754V30.4373H146.804V37.1818C146.804 39.87 144.62 41.3027 140.752 41.3027Z" fill="white"/>
<path d="M161.104 41.1527V34L157.719 41.1527H155.149L151.86 34V41.1527H149.376V30.4373H152.742L156.473 38.6L160.286 30.4373H163.599V41.1527H161.104Z" fill="white"/>
</svg>
