<svg width="33" height="28" viewBox="0 0 33 28" fill="none" xmlns="http://www.w3.org/2000/svg">
<path d="M1.42047 12.7254C2.25884 9.33649 4.2005 6.32701 6.93626 4.17631C9.67206 2.02557 13.0447 0.857178 16.5171 0.857178C19.9894 0.857178 23.3621 2.02557 26.0979 4.17631C28.8337 6.32701 30.7752 9.33649 31.6136 12.7254H30.25C27.9497 12.6913 25.6965 13.3828 23.8068 14.7025C23.6977 14.782 23.5839 14.8545 23.4659 14.9197H23.3068C23.1889 14.8545 23.075 14.782 22.9659 14.7025C21.0596 13.4133 18.8143 12.7247 16.5171 12.7247C14.2198 12.7247 11.9746 13.4133 10.0682 14.7025C9.95911 14.782 9.84524 14.8545 9.72729 14.9197H9.5682C9.45024 14.8545 9.33638 14.782 9.22729 14.7025C7.33763 13.3828 5.08445 12.6913 2.7841 12.7254H1.42047ZM27.7955 19.8911C28.4955 19.3429 29.3631 19.056 30.25 19.0797H32.0796V15.4111H30.25C28.6877 15.3921 27.1613 15.8812 25.8977 16.8054C25.1867 17.3326 24.3266 17.6171 23.4432 17.6171C22.5598 17.6171 21.6997 17.3326 20.9886 16.8054C19.6931 15.8984 18.1524 15.4121 16.5739 15.4121C14.9954 15.4121 13.4547 15.8984 12.1591 16.8054C11.4481 17.3326 10.588 17.6171 9.70456 17.6171C8.82115 17.6171 7.96104 17.3326 7.25001 16.8054C5.97092 15.8693 4.42251 15.3797 2.84092 15.4111H0.954559V19.0797H2.7841C3.67105 19.056 4.53865 19.3429 5.23865 19.8911C6.53183 20.7988 8.07081 21.2854 9.64774 21.2854C11.2247 21.2854 12.7637 20.7988 14.0568 19.8911C14.7577 19.3446 15.6247 19.058 16.5114 19.0797C17.3987 19.0541 18.2668 19.3412 18.9659 19.8911C20.2615 20.7982 21.8022 21.2844 23.3807 21.2844C24.9592 21.2844 26.4999 20.7982 27.7955 19.8911ZM27.7955 26.4511C28.4955 25.9029 29.3631 25.616 30.25 25.6397H32.0796V21.9711H30.25C28.6877 21.9521 27.1613 22.4412 25.8977 23.3654C25.1867 23.8926 24.3266 24.1771 23.4432 24.1771C22.5598 24.1771 21.6997 23.8926 20.9886 23.3654C19.6931 22.4584 18.1524 21.9723 16.5739 21.9723C14.9954 21.9723 13.4547 22.4584 12.1591 23.3654C11.4481 23.8926 10.588 24.1771 9.70456 24.1771C8.82115 24.1771 7.96104 23.8926 7.25001 23.3654C5.97092 22.4294 4.42251 21.9397 2.84092 21.9711H0.954559V25.6397H2.7841C3.67105 25.616 4.53865 25.9029 5.23865 26.4511C6.53183 27.3588 8.07081 27.8454 9.64774 27.8454C11.2247 27.8454 12.7637 27.3588 14.0568 26.4511C14.7577 25.9046 15.6247 25.618 16.5114 25.6397C17.3987 25.6141 18.2668 25.9012 18.9659 26.4511C20.2615 27.3582 21.8022 27.8444 23.3807 27.8444C24.9592 27.8444 26.4999 27.3582 27.7955 26.4511Z" fill="#4B5567"/>
</svg>
