<svg width="22" height="32" viewBox="0 0 22 32" fill="none" xmlns="http://www.w3.org/2000/svg">
<path d="M10.0301 20.1027V28.1194C10.0301 28.4268 9.90725 28.7215 9.6886 28.9387C9.47005 29.156 9.17353 29.2781 8.8643 29.2781C8.55517 29.2781 8.25865 29.156 8.04 28.9387C7.82134 28.7215 7.69852 28.4268 7.69852 28.1194V20.1137C8.02315 20.3494 8.41226 20.4809 8.8141 20.4907C9.25207 20.5032 9.68123 20.3662 10.0301 20.1027ZM19.9587 17.7852C19.6629 17.7852 19.379 17.9021 19.1699 18.11C18.9607 18.3179 18.8431 18.6 18.8431 18.894V20.2912C18.8431 20.5985 18.966 20.8932 19.1846 21.1105C19.4031 21.3278 19.6997 21.4499 20.0089 21.4499C20.3181 21.4499 20.6147 21.3278 20.8332 21.1105C21.0519 20.8932 21.1747 20.5985 21.1747 20.2912V18.9495C21.1834 18.7905 21.1575 18.6315 21.0988 18.4833C21.0401 18.3352 20.9501 18.2013 20.8347 18.0908C20.7193 17.9804 20.5813 17.8959 20.4303 17.8431C20.2791 17.7904 20.1182 17.7707 19.9587 17.7852ZM5.16616 23.1408C4.76474 23.1288 4.37614 22.9976 4.05058 22.7638V30.8027C4.05058 31.1115 4.17399 31.4077 4.39367 31.626C4.61334 31.8443 4.91127 31.967 5.22194 31.967C5.53261 31.967 5.83054 31.8443 6.05021 31.626C6.26989 31.4077 6.3933 31.1115 6.3933 30.8027V22.8193C6.029 23.0533 5.59918 23.166 5.16616 23.1408ZM16.3219 15.3791C16.1708 15.3716 16.0197 15.3947 15.8778 15.4471C15.736 15.4994 15.6064 15.5799 15.4967 15.6836C15.3872 15.7874 15.3001 15.9121 15.2405 16.0504C15.181 16.1887 15.1503 16.3376 15.1506 16.4879V22.664C15.1506 22.9728 15.274 23.269 15.4936 23.4873C15.7134 23.7056 16.0112 23.8283 16.3219 23.8283C16.6326 23.8283 16.9306 23.7056 17.1502 23.4873C17.3699 23.269 17.4933 22.9728 17.4933 22.664V16.5655C17.5022 16.4055 17.4761 16.2455 17.4168 16.0965C17.3574 15.9475 17.2664 15.813 17.1497 15.7023C17.033 15.5917 16.8937 15.5074 16.7412 15.4555C16.5887 15.4035 16.4266 15.385 16.2661 15.4013L16.3219 15.3791ZM12.6182 17.752C12.198 17.7491 11.789 17.6175 11.4469 17.375V25.4361C11.4469 25.7449 11.5702 26.041 11.7899 26.2594C12.0097 26.4777 12.3075 26.6003 12.6182 26.6003C12.9289 26.6003 13.2268 26.4777 13.4465 26.2594C13.6662 26.041 13.7896 25.7449 13.7896 25.4361V17.3861C13.4357 17.6481 13.0036 17.7847 12.5624 17.7741L12.6182 17.752ZM2.6338 23.9281V1.40803C2.63087 1.13352 2.51909 0.871263 2.32275 0.678185C2.1264 0.485107 1.86135 0.37682 1.58516 0.376831H1.33973C1.06354 0.37682 0.79849 0.485107 0.602148 0.678185C0.405807 0.871263 0.294026 1.13352 0.291092 1.40803V23.9281C0.291092 24.2045 0.401579 24.4696 0.598232 24.6651C0.794886 24.8606 1.06162 24.9704 1.33973 24.9704H1.58516C1.86328 24.9704 2.13001 24.8606 2.32666 24.6651C2.52333 24.4696 2.6338 24.2045 2.6338 23.9281ZM5.28887 22.287H5.04345C4.76533 22.287 4.4986 22.1772 4.30195 21.9818C4.10529 21.7863 3.99481 21.5212 3.99481 21.2447V4.09136C3.99775 3.81686 4.10952 3.55459 4.30586 3.36152C4.5022 3.16844 4.76725 3.06015 5.04345 3.06016H5.28887C5.56507 3.06015 5.83012 3.16844 6.02646 3.36152C6.2228 3.55459 6.33458 3.81686 6.33752 4.09136V21.2669C6.33752 21.5433 6.22703 21.8085 6.03038 22.0039C5.83372 22.1994 5.56699 22.3092 5.28887 22.3092V22.287ZM8.98143 19.648H8.72485C8.44975 19.648 8.1858 19.5394 7.99125 19.346C7.79669 19.1526 7.68736 18.8904 7.68736 18.6168V6.75252C7.68591 6.61617 7.71168 6.48088 7.76311 6.35449C7.81454 6.22809 7.89073 6.11311 7.98723 6.01618C8.08373 5.91925 8.19863 5.84229 8.32525 5.78978C8.45187 5.73727 8.58763 5.71022 8.72485 5.71023H8.98143C9.25765 5.71316 9.52148 5.82425 9.7157 6.0194C9.91004 6.21456 10.0189 6.478 10.0189 6.75252V18.6168C10.0189 18.8904 9.90959 19.1526 9.71504 19.346C9.52048 19.5394 9.25664 19.648 8.98143 19.648ZM12.674 16.9314H12.4397C12.1635 16.9314 11.8984 16.8232 11.7021 16.6301C11.5058 16.437 11.394 16.1748 11.3911 15.9002V9.51347C11.3819 9.3711 11.4022 9.22839 11.4509 9.09412C11.4994 8.95995 11.5753 8.83698 11.6735 8.73309C11.7718 8.62908 11.8905 8.54636 12.0224 8.48981C12.1541 8.43337 12.2961 8.40432 12.4397 8.40465H12.6851C12.9633 8.40465 13.23 8.51443 13.4267 8.70991C13.6233 8.9054 13.7338 9.17051 13.7338 9.44694V15.8781C13.7352 16.0159 13.7092 16.1526 13.6571 16.2803C13.6052 16.4081 13.5282 16.5243 13.4306 16.6223C13.3331 16.7202 13.2171 16.7979 13.089 16.8511C12.961 16.9042 12.8238 16.9314 12.6851 16.9314H12.674ZM16.3777 14.5475H16.1323C15.8542 14.5475 15.5874 14.4377 15.3908 14.2422C15.1941 14.0468 15.0836 13.7816 15.0836 13.5052V11.8531C15.0865 11.5785 15.1983 11.3163 15.3947 11.1232C15.591 10.9301 15.8561 10.8219 16.1323 10.8219H16.3777C16.6539 10.8219 16.919 10.9301 17.1153 11.1232C17.3117 11.3163 17.4234 11.5785 17.4263 11.8531V13.5052C17.4263 13.7797 17.3175 14.0432 17.1231 14.2384C16.9289 14.4335 16.6651 14.5446 16.3889 14.5475H16.3777Z" fill="white"/>
</svg>
