<svg width="29" height="30" viewBox="0 0 29 30" fill="none" xmlns="http://www.w3.org/2000/svg">
<path d="M12.6308 27.7634L1.14271 5.43334C0.880103 4.9225 0.764548 4.34948 0.808776 3.7775C0.853005 3.20552 1.05531 2.65679 1.39336 2.19183C1.73143 1.72687 2.19211 1.36374 2.72462 1.14248C3.25714 0.921219 3.84078 0.850434 4.41119 0.937933L25.7014 4.20388C26.1915 4.27908 26.6568 4.46885 27.0588 4.75758C27.4608 5.04632 27.7881 5.42576 28.0138 5.86473C28.2395 6.30369 28.3572 6.78963 28.3571 7.2826C28.357 7.77557 28.2391 8.26148 28.0134 8.70037L18.2058 27.7645C17.9424 28.2739 17.5428 28.7013 17.051 28.9996C16.5591 29.298 15.9941 29.4557 15.418 29.4556C14.8418 29.4555 14.2768 29.2976 13.785 28.9991C13.2933 28.7004 12.8939 28.2729 12.6308 27.7634Z" fill="#728095"/>
</svg>
